/* XPM */
static const char * active_call_xpm[] = {
"16 16 64 1",
" 	c None",
".	c #000000",
"+	c #FFFFFF",
"@	c #ECECEC",
"#	c #353535",
"$	c #D3D3D3",
"%	c #131313",
"&	c #C7C7C7",
"*	c #D7D7D7",
"=	c #942A13",
"-	c #DF421E",
";	c #AA3116",
">	c #F9F9F9",
",	c #EAEAEA",
"'	c #E9E9E9",
")	c #EBEBEB",
"!	c #DBDBDB",
"~	c #D4D4D4",
"{	c #4A4A4A",
"]	c #A4A4A4",
"^	c #ACACAC",
"/	c #DCDCDC",
"(	c #3C3C3C",
"_	c #8C8C8C",
":	c #979797",
"<	c #AEAEAE",
"[	c #DADADA",
"}	c #D0D0CF",
"|	c #B5B5B5",
"1	c #78230F",
"2	c #F7F7F7",
"3	c #FAFAFA",
"4	c #FBFBFB",
"5	c #F8F8F8",
"6	c #F4F4F3",
"7	c #ECECEB",
"8	c #AEADAB",
"9	c #8A8A8A",
"0	c #A8A8A6",
"a	c #D8D7D4",
"b	c #B3B2B0",
"c	c #CCCAC6",
"d	c #1B1B1B",
"e	c #D3D2D0",
"f	c #81807E",
"g	c #9F9E9A",
"h	c #737271",
"i	c #444240",
"j	c #8F8E8D",
"k	c #9B9A97",
"l	c #A0A09E",
"m	c #82817F",
"n	c #8F2911",
"o	c #767573",
"p	c #A4A3A1",
"q	c #AAA9A6",
"r	c #1F1E1D",
"s	c #393836",
"t	c #2E2D2C",
"u	c #141413",
"v	c #20201E",
"w	c #242422",
"x	c #2D2C29",
"y	c #1E1D1B",
"    .........   ",
"    .++++++@.   ",
" ....+#$.%&*.   ",
".=-;.>,''')!.   ",
".---.~{.).]!.   ",
".--..^/))))!.   ",
".--..]()_.:!..  ",
".---.<['''''}|. ",
" 1---.234435678.",
" .----.9...0abcd",
" ..----..-=.efg.",
" .h.-------.ijk.",
" .lm.n----=.opq.",
" .rstu.....vwxy.",
"  ............. ",
"                "};
